<?xml version="1.0" standalone="no"?>
<!DOCTYPE svg PUBLIC "-//W3C//DTD SVG 20010904//EN"
 "http://www.w3.org/TR/2001/REC-SVG-20010904/DTD/svg10.dtd">
<svg version="1.0" xmlns="http://www.w3.org/2000/svg"
 width="513.000000pt" height="513.000000pt" viewBox="0 0 513.000000 513.000000"
 preserveAspectRatio="xMidYMid meet">
<metadata>
Created by potrace 1.14, written by Peter Selinger 2001-2017
</metadata>
<g transform="translate(0.000000,513.000000) scale(0.100000,-0.100000)"
fill="#000000" stroke="none">
<path d="M2369 5126 c-2 -2 -37 -7 -77 -10 -40 -4 -78 -9 -85 -11 -7 -2 -30
-6 -52 -9 -85 -12 -114 -18 -241 -51 -116 -30 -208 -59 -269 -85 -18 -7 -51
-19 -65 -23 -3 0 -40 -18 -83 -39 -43 -21 -80 -38 -83 -38 -3 0 -48 -25 -100
-55 -53 -30 -97 -55 -99 -55 -3 0 -44 -28 -92 -61 -357 -248 -631 -553 -825
-916 -130 -242 -252 -613 -274 -828 -1 -11 -5 -47 -10 -80 -5 -33 -9 -163 -9
-290 0 -206 3 -270 20 -382 3 -18 7 -46 9 -63 3 -16 7 -37 10 -47 3 -10 8 -31
10 -48 3 -16 15 -66 27 -110 11 -44 22 -87 24 -95 2 -8 19 -58 38 -110 164
-454 434 -836 802 -1135 243 -197 472 -323 800 -441 49 -17 255 -74 294 -80
18 -3 43 -8 55 -10 11 -3 39 -7 61 -10 22 -3 46 -7 54 -10 55 -18 474 -26 606
-11 124 13 139 15 170 21 17 4 46 9 65 12 56 9 248 60 330 87 101 34 287 110
330 136 8 5 58 33 110 61 77 42 235 143 285 182 128 98 319 277 395 368 11 14
28 34 38 45 10 11 33 40 52 65 19 25 39 50 43 55 44 52 162 248 219 365 39 80
77 156 84 170 16 33 115 328 120 360 3 14 12 59 20 100 8 41 17 90 20 109 2
19 7 48 10 65 26 150 25 574 -2 709 -2 12 -7 38 -9 57 -23 149 -85 371 -148
530 -70 176 -212 429 -330 585 -22 30 -104 131 -117 145 -8 9 -38 41 -66 71
-63 67 -175 173 -233 219 -24 19 -48 40 -55 45 -43 39 -324 225 -340 225 -3 0
-28 13 -56 30 -27 16 -50 27 -50 24 0 -4 -6 -2 -12 4 -33 27 -343 147 -429
166 -13 3 -60 15 -104 26 -72 18 -130 29 -235 45 -19 2 -53 8 -75 11 -42 6
-470 15 -476 10z m471 -351 c68 -12 85 -15 120 -21 19 -3 71 -14 115 -25 44
-11 89 -21 99 -24 11 -2 49 -15 85 -27 36 -12 68 -23 71 -23 5 -2 12 -4 105
-42 152 -63 423 -224 525 -313 164 -143 337 -318 349 -353 2 -6 13 -20 24 -32
25 -26 157 -227 182 -280 11 -22 22 -42 25 -45 9 -8 60 -119 87 -190 14 -36
29 -74 33 -85 9 -21 29 -84 54 -170 17 -58 42 -178 52 -250 3 -27 8 -59 11
-70 3 -11 6 -110 8 -220 2 -177 -6 -299 -28 -415 -3 -14 -8 -41 -12 -61 l-7
-37 -71 -11 c-204 -31 -286 -34 -271 -10 7 13 17 231 17 384 -1 206 -16 341
-58 525 -35 153 -148 324 -252 386 -205 120 -376 2 -433 -296 -25 -132 -34
-387 -17 -525 15 -128 82 -346 122 -395 7 -8 14 -22 17 -30 11 -31 100 -139
157 -192 49 -44 59 -60 56 -79 -6 -31 -19 -92 -21 -101 -1 -5 -2 -9 -4 -10 -2
-3 -6 -22 -13 -63 -11 -59 -88 -303 -128 -403 -48 -121 -99 -199 -122 -185
-20 12 -74 149 -91 233 -3 14 -12 56 -20 93 -8 38 -18 87 -21 110 -3 23 -8 53
-10 67 -7 39 -16 164 -20 282 -4 121 -10 158 -35 208 -60 117 -173 179 -285
156 -11 -3 -23 -5 -27 -5 -4 -1 -23 -15 -42 -31 -41 -37 -54 -71 -60 -165 -3
-38 -11 -89 -20 -112 -8 -24 -13 -43 -11 -43 2 0 -2 -18 -10 -40 -8 -22 -14
-41 -14 -43 0 -3 0 -3 -46 -157 -64 -216 -155 -422 -199 -452 -12 -8 -32 47
-41 111 -4 25 -8 57 -10 71 -27 191 -27 653 0 910 2 19 7 64 10 100 3 36 8 79
10 95 1 17 6 59 10 95 4 36 8 77 9 93 0 15 3 27 6 27 3 0 6 44 5 98 0 119 -21
170 -101 248 -60 59 -125 86 -203 86 -50 -1 -131 -27 -131 -44 0 -5 -4 -7 -8
-4 -5 3 -10 51 -11 108 -4 157 -16 389 -26 473 -3 22 -7 63 -11 90 -3 28 -7
64 -9 80 -2 17 -6 57 -10 90 -8 68 -49 281 -60 308 -6 13 -2 17 16 18 13 1 49
3 79 5 80 6 170 12 213 13 27 1 45 8 61 26 23 25 23 28 11 75 -22 84 -94 160
-169 182 -87 24 -738 12 -906 -17 l-35 -6 30 18 c17 10 64 33 105 52 41 18 84
37 95 42 130 58 406 127 580 144 39 4 72 9 74 11 6 5 414 -4 451 -11z m-1089
-609 c0 -12 2 -28 4 -36 6 -28 21 -145 30 -220 2 -25 7 -70 11 -100 11 -98 9
-81 30 -310 18 -204 25 -700 11 -807 -4 -29 -9 -77 -12 -105 -3 -29 -8 -60
-11 -69 -2 -10 -6 -30 -9 -45 -2 -16 -8 -49 -14 -74 -7 -25 -14 -56 -17 -70
-16 -82 -90 -280 -129 -349 -138 -238 -351 -395 -470 -346 -71 29 -185 214
-209 339 -27 138 -40 160 -112 193 -100 46 -173 49 -213 8 -25 -24 -26 -31
-26 -133 1 -234 89 -401 308 -579 47 -38 191 -99 262 -111 54 -9 229 -9 284 0
51 9 160 46 179 60 6 6 12 8 12 4 0 -8 126 69 175 108 114 89 240 253 309 401
46 98 65 145 77 183 6 23 15 42 18 42 3 0 6 -35 7 -77 0 -95 13 -329 19 -357
2 -12 7 -43 10 -71 5 -49 9 -76 21 -145 4 -19 8 -44 10 -55 1 -11 6 -31 9 -45
4 -14 8 -32 9 -40 10 -59 49 -173 89 -261 55 -119 165 -237 261 -280 84 -37
247 -29 305 16 57 43 123 113 144 153 41 74 87 174 100 215 7 20 14 37 17 37
3 0 18 -33 34 -73 60 -148 160 -301 243 -367 24 -19 49 -40 56 -46 20 -18 94
-52 127 -59 17 -4 30 -10 30 -14 0 -12 -270 -147 -371 -184 -137 -51 -325
-101 -459 -122 -136 -21 -464 -28 -580 -12 -97 13 -164 24 -250 43 -14 3 -34
7 -45 9 -48 10 -187 55 -270 87 -343 133 -660 359 -894 638 -25 30 -52 61 -59
68 -64 68 -265 419 -301 527 -8 22 -21 56 -29 75 -9 19 -17 44 -19 55 -2 11
-7 29 -12 40 -12 24 -48 158 -56 206 -3 19 -8 41 -10 49 -2 8 -7 33 -10 55 -3
23 -7 50 -9 62 -22 114 -23 464 -2 578 2 11 7 40 11 65 12 75 15 89 31 159 16
69 58 211 73 246 5 11 27 65 50 120 23 55 64 140 91 189 28 49 50 93 50 97 0
4 3 9 8 11 4 2 25 30 46 63 44 68 116 163 153 203 13 14 40 45 60 68 l37 41
35 -14 c36 -15 84 -18 131 -8 14 3 54 10 90 16 36 5 79 12 95 16 17 3 40 7 52
8 21 3 64 10 138 21 17 3 46 7 65 10 84 10 125 16 127 18 1 1 14 2 28 2 18 0
25 -5 26 -20z m2283 -1278 c2 -7 6 -29 9 -48 4 -19 10 -48 13 -65 9 -44 15
-441 7 -462 -7 -18 -8 -18 -38 92 -30 105 -35 329 -11 450 3 11 5 29 5 39 1
21 11 17 15 -6z m579 -1185 c-84 -203 -235 -440 -387 -608 -69 -77 -91 -90
-62 -38 49 88 144 394 171 553 3 19 9 53 13 74 l7 39 80 -1 c63 -1 180 9 192
17 1 0 -5 -16 -14 -36z"/>
</g>
</svg>
