<?xml version="1.0" encoding="UTF-8" standalone="no"?>
<!-- Created with Inkscape (http://www.inkscape.org/) -->

<svg
   width="512.52527"
   height="511.59262"
   viewBox="0 0 512.52527 511.59262"
   version="1.1"
   id="svg1"
   xmlns="http://www.w3.org/2000/svg"
   xmlns:svg="http://www.w3.org/2000/svg">
  <defs
     id="defs1" />
  <g
     id="layer1"
     transform="translate(-0.02943594,-0.73037708)">
    <path
       style="fill:none;fill-opacity:1;fill-rule:evenodd;stroke:#000000;stroke-width:33.953;stroke-linecap:round;stroke-linejoin:round;stroke-dasharray:none;stroke-opacity:1;paint-order:stroke fill markers"
       id="path2"
       d="m 495.57817,256.52647 a 239.45191,238.82717 0 1 0 0,4.5e-4" />
    <path
       d="m 232.66811,61.038554 q 7.18189,0.673302 13.46605,8.079627 6.50859,7.406324 6.50859,15.261517 0,6.284154 -6.28416,6.508588 -20.4235,1.122171 -31.6452,2.244341 3.81538,8.528493 7.85519,45.784553 4.26425,37.25606 4.26425,83.04061 0,80.12296 -28.952,127.25412 -13.01717,21.32124 -31.42077,32.76737 -18.17916,11.44614 -38.82709,11.44614 -27.6054,0 -48.028897,-21.54567 -20.872369,-21.99454 -20.872369,-52.0687 0,-8.30407 2.019907,-12.11944 2.019906,-3.81538 7.630758,-3.81538 7.181891,0 14.363781,3.81538 7.406325,3.59094 8.079627,8.97736 2.468775,17.28142 10.323963,32.31851 8.07963,15.03708 16.38369,15.03708 8.5285,0 18.4036,-8.07963 10.09953,-8.30406 19.7502,-24.01444 9.65066,-15.93482 15.93481,-43.76465 6.50859,-28.05426 6.50859,-62.61711 0,-34.11398 -3.59094,-73.16551 -3.59095,-39.05153 -6.28416,-54.088609 -21.99454,2.693209 -53.19087,8.528499 -11.67057,2.0199 -11.89501,2.0199 -7.406323,0 -14.812648,-7.18189 -7.406324,-7.181889 -7.406324,-17.505856 0,-9.201797 7.406324,-11.446138 7.630759,-2.468775 44.662378,-7.406325 37.25606,-5.161984 66.20806,-5.161984 25.13661,0 33.44067,0.897737 z"
       id="text2"
       style="font-size:459.641px;font-family:'Peanut Butter';-inkscape-font-specification:'Peanut Butter';fill-rule:evenodd;stroke-width:766.071;stroke-linecap:round;stroke-linejoin:round;paint-order:stroke fill markers"
       transform="scale(1.0367494,0.96455323)"
       aria-label="J" />
    <path
       d="m 601.09236,265.86213 q 1.20393,4.09338 -2.64866,6.50125 -5.05653,3.85259 -25.76422,9.14991 -20.46691,5.29731 -44.06404,5.29731 -6.98283,0 -10.59464,-0.48157 -9.14991,38.52594 -27.44973,63.08622 -18.29981,24.56029 -39.48908,24.56029 -17.09588,0 -32.50626,-9.3907 -15.16959,-9.3907 -26.72737,-26.96816 -3.37102,-5.05653 -6.50125,-11.31699 -1.68551,4.33417 -4.81574,9.3907 -2.88945,4.81574 -8.90912,12.28014 -5.77889,7.4644 -15.41038,12.28014 -9.63148,4.57496 -20.94848,4.57496 -8.90912,0 -17.09588,-2.16709 -8.18676,-2.40787 -18.05903,-9.63148 -9.63149,-7.4644 -16.61431,-19.50376 -6.98283,-12.28014 -11.79857,-33.95098 -4.81574,-21.67084 -4.81574,-50.56529 0,-33.22862 6.98282,-65.73488 1.44472,-6.74204 7.70519,-10.35385 6.26046,-3.85259 15.41037,-3.85259 20.22612,0 32.02469,13.72487 6.50125,7.4644 5.29731,14.9288 -0.24078,1.20393 -0.72236,4.09338 -8.90912,49.84293 -8.90912,77.77423 0,16.8551 2.16708,31.7839 2.16709,14.9288 5.53811,20.94848 14.9288,-7.70519 37.08121,-68.86511 v -4.57496 q 0,-7.94597 6.01968,-11.79857 6.01968,-4.09338 13.96565,-4.09338 13.48408,0 23.35635,7.70519 9.87227,7.4644 9.87227,18.05903 0,18.7814 4.09338,36.35885 4.33417,17.33668 8.90913,26.2458 4.81574,8.90912 7.4644,8.90912 2.88944,0 8.66833,-8.18676 6.01968,-8.18676 13.0025,-24.07871 7.22362,-16.13274 12.03936,-34.19177 -6.74204,-3.85259 -9.87227,-6.01968 -33.95098,-23.83792 -33.95098,-66.45724 0,-26.96815 9.39069,-41.65617 9.63149,-14.9288 26.96816,-14.9288 10.59463,0 19.98533,4.57496 9.63148,4.33417 17.81825,13.48408 8.18676,9.14991 13.0025,25.52343 4.81574,16.13274 4.81574,37.56279 0,13.96565 -2.16708,32.98783 h 1.20393 q 11.79857,0 36.59964,-2.88944 13.96565,-1.44473 17.09589,-1.44473 7.4644,0 14.68801,3.61181 7.4644,3.37102 8.66834,7.70519 z M 483.10667,239.13476 q 0.96315,-8.42755 0.96315,-19.26297 0,-20.4669 -5.29731,-33.46941 -3.37102,10.59463 -3.37102,22.3932 0,18.29982 7.70518,30.33918 z"
       id="text3"
       style="font-size:493.132px;font-family:'Peanut Butter';-inkscape-font-specification:'Peanut Butter';fill-rule:evenodd;stroke-width:821.888;stroke-linecap:round;stroke-linejoin:round;paint-order:stroke fill markers"
       transform="scale(0.84016492,1.1902425)"
       aria-label="w" />
  </g>
</svg>
